<svg width="31" height="23" viewBox="0 0 31 23" fill="none" xmlns="http://www.w3.org/2000/svg">
<path id="&#208;&#155;&#208;&#190;&#208;&#179;&#208;&#190;&#209;&#130;&#208;&#184;&#208;&#191;" d="M15.494 22.4811C18.3667 22.4811 19.6637 21.5967 21.7805 20.7004C23.4595 19.9941 25.9184 19.8754 26.929 19.086C27.8639 18.3544 28.5822 17.4844 29.0373 16.5324C29.4925 15.5804 29.6742 14.5677 29.5709 13.56C29.5709 12.4026 28.8149 10.6931 28.8149 10.2361C28.8149 9.77907 31.8388 0.519653 28.2261 0.519653C25.608 0.519653 19.8786 5.36897 19.8786 5.36897C18.5619 4.746 17.0513 4.38813 15.494 4.33026C13.9312 4.3861 12.4148 4.74404 11.0935 5.36897C11.0935 5.36897 5.36406 0.519653 2.76195 0.519653C-0.834857 0.519653 2.18901 9.79094 2.18901 10.248C2.18901 10.705 1.39325 12.4144 1.39325 13.5719C1.29302 14.5809 1.47858 15.5944 1.93785 16.5464C2.39712 17.4985 3.11984 18.3678 4.05903 19.0978C5.06963 19.8873 7.52851 20.006 9.20755 20.7123C11.3243 21.5908 12.6213 22.4811 15.494 22.4811Z" stroke="white" stroke-linecap="round" stroke-linejoin="round"/>
</svg>
